<svg width="24" height="24" viewBox="0 0 24 24" version="1.1" xmlns="http://www.w3.org/2000/svg" xmlns:xlink="http://www.w3.org/1999/xlink">
<title>twitter</title>
<desc>Created using Figma</desc>
<g id="Canvas" transform="translate(-5151 -1015)">
<g id="ic/24/social/twitter">
<g id="Shape">
<use xlink:href="#path0_fill" transform="translate(5154 1019.5)" fill="#FFFFFF"/>
</g>
<mask id="mask0_outline" mask-type="alpha">
<g id="Shape">
<use xlink:href="#path0_fill" transform="translate(5154 1019.5)" fill="#FFFFFF"/>
</g>
</mask>
</g>
</g>
<defs>
<path id="path0_fill" fill-rule="evenodd" d="M 17.5303 1.59489C 17.6524 1.56364 17.8052 1.59489 17.897 1.68864C 17.9883 1.78239 18.0191 1.93864 17.9888 2.06364C 17.7134 2.96977 17.1636 3.62602 16.4917 3.96977L 16.4917 4.0634C 16.4917 10.0942 12.0918 15 6.71486 15C 3.69045 15 1.24611 14.4688 0.146015 13.5627C 0.0239444 13.4377 -0.0370908 13.2814 0.0239444 13.0939C 0.0849795 12.9377 0.237812 12.8127 0.420917 12.8127C 2.22365 12.7814 3.38478 12.344 4.27053 11.8128C 2.55959 11.594 1.49025 10.7504 0.940448 9.15678C 0.879413 9.00053 0.940448 8.84428 1.06252 8.75053C 1.18508 8.65678 1.36818 8.65678 1.49025 8.71928C 1.94875 9.03178 2.40725 9.09428 2.95705 9.09428C 1.79592 8.37566 0.726581 7.18816 0.298847 5.71953C 0.281269 5.62859 0.294452 5.52714 0.333026 5.44585C 0.36037 5.3875 0.400409 5.33952 0.451679 5.3134C 0.604511 5.21965 0.757343 5.2509 0.879413 5.34465C 1.07082 5.50493 1.27248 5.63481 1.51223 5.73418C 1.69289 5.80913 1.89553 5.86674 2.13185 5.90703C 0.940448 4.65715 0.20705 2.81352 1.24611 0.782516L 1.42922 0.407516L 1.73488 0.720016C 3.62892 2.75102 5.37062 3.68852 8.54787 4.3134L 8.54787 4.1884C 8.54787 1.90739 10.2896 0.0325162 12.4585 0.0012662C 13.314 0.0012662 14.5054 0.626266 14.9946 0.907516C 15.0249 0.907516 15.0557 0.938766 15.0557 0.907516C 15.6665 0.720016 16.3999 0.407516 17.2554 0.0325162C 17.3775 -0.0299838 17.5303 0.0012662 17.6221 0.0950162C 17.6641 0.138229 17.6934 0.188034 17.7066 0.244552C 17.7222 0.310592 17.7158 0.385788 17.6831 0.470016C 17.5303 0.907516 17.2857 1.37627 16.9195 1.81364L 17.5303 1.59489ZM 15.7354 3.73784L 15.9131 3.67741C 16.4761 3.46623 16.8023 3.01347 17.0098 2.62126L 15.854 3.0136C 15.7056 3.0739 15.5279 3.0136 15.4688 2.86272C 15.4092 2.71172 15.439 2.53069 15.5576 2.44011C 16.0318 2.04778 16.3872 1.62529 16.6543 1.17265C 16.4141 1.27055 16.1831 1.36345 15.9644 1.44951C 15.6436 1.57548 15.3477 1.68645 15.083 1.77617C 15.0122 1.80022 14.9414 1.80986 14.8706 1.80705C 14.7637 1.8029 14.6568 1.77031 14.5498 1.71587L 14.5313 1.70537C 14.1826 1.51164 13.0845 0.901535 12.4155 0.931198C 10.6372 0.961349 9.21437 2.50053 9.21437 4.37163L 9.21437 5.2166L 8.85891 5.1563C 5.59865 4.55266 3.79055 3.67741 1.89357 1.77617C 1.00441 4.06975 2.84182 5.66936 3.46437 6.12199L 4.2051 6.66521L 3.28664 6.66521C 2.69387 6.66521 2.04152 6.6049 1.44875 6.3333C 2.10109 7.72148 3.43459 8.7476 4.56105 9.07964L 4.47219 9.68315C 4.35549 9.68315 4.23879 9.68315 4.12209 9.68681C 4.00148 9.69048 3.88137 9.69804 3.76076 9.7133C 3.36232 9.73271 2.9883 9.73967 2.63039 9.69463C 2.42922 9.66936 2.23342 9.62761 2.04152 9.56242C 2.6343 10.7093 3.67189 11.1922 5.36135 11.1922L 6.25051 11.1922L 5.5093 11.7354C 4.59084 12.4596 3.40529 13.1236 1.35988 13.2746C 2.33791 13.7574 4.14601 14.2101 6.84328 14.2101C 11.4644 14.2101 15.7354 9.49907 15.7354 4.2509L 15.7354 3.73784Z"/>
</defs>
</svg>
